<?xml version="1.0" encoding="UTF-8"?>
<!DOCTYPE svg PUBLIC "-//W3C//DTD SVG 1.1//EN" "http://www.w3.org/Graphics/SVG/1.1/DTD/svg11.dtd">
<svg xmlns="http://www.w3.org/2000/svg" version="1.1" width="2000px" height="1247px" style="shape-rendering:geometricPrecision; text-rendering:geometricPrecision; image-rendering:optimizeQuality; fill-rule:evenodd; clip-rule:evenodd" xmlns:xlink="http://www.w3.org/1999/xlink">
<g><path style="opacity:0.968" fill="#ee3d37" d="M 1198.5,-0.5 C 1227.5,-0.5 1256.5,-0.5 1285.5,-0.5C 1468.97,15.9706 1618.47,95.304 1734,237.5C 1833.65,368.156 1876.98,515.823 1864,680.5C 1847.05,843.232 1778.55,979.399 1658.5,1089C 1551.99,1182.56 1427.66,1235.06 1285.5,1246.5C 1256.5,1246.5 1227.5,1246.5 1198.5,1246.5C 1018.03,1230.36 870.196,1153.03 755,1014.5C 692.318,936.118 650.818,847.451 630.5,748.5C 634.106,748.211 637.606,748.544 641,749.5C 675.129,902.501 754.629,1025.67 879.5,1119C 1022.6,1220.35 1180.93,1256.35 1354.5,1227C 1508.56,1196.27 1633.73,1119.43 1730,996.5C 1836.3,852.973 1875.3,692.64 1847,515.5C 1817.91,363.568 1743.74,239.068 1624.5,142C 1483.58,33.3884 1324.58,-8.61164 1147.5,16C 974.477,46.202 837.31,132.369 736,274.5C 689.606,341.981 657.939,415.981 641,496.5C 637.606,497.456 634.106,497.789 630.5,497.5C 668.551,324.427 761.551,189.927 909.5,94C 998.124,38.9586 1094.46,7.45859 1198.5,-0.5 Z"/></g>
<g><path style="opacity:0.989" fill="#ee3d37" d="M 485.5,520.5 C 505.993,520.098 525.326,524.598 543.5,534C 544.022,534.561 544.355,535.228 544.5,536C 539.467,545.232 534.3,554.398 529,563.5C 511.29,552.063 492.123,548.897 471.5,554C 453.259,561.049 448.093,573.549 456,591.5C 459.251,595.422 463.084,598.588 467.5,601C 478.49,606.493 489.157,612.493 499.5,619C 523.744,638.06 529.577,661.893 517,690.5C 505.596,708.873 489.096,719.706 467.5,723C 437.883,728.618 409.883,724.285 383.5,710C 382.978,709.439 382.645,708.772 382.5,708C 386.986,698.694 391.986,689.694 397.5,681C 401.41,681.782 405.076,683.449 408.5,686C 428.823,695.633 449.49,696.633 470.5,689C 485.297,679.646 488.797,667.146 481,651.5C 477.749,647.578 473.916,644.412 469.5,642C 458.51,636.507 447.843,630.507 437.5,624C 418.751,610.098 411.584,591.598 416,568.5C 420.36,548.964 431.86,535.464 450.5,528C 461.945,523.766 473.611,521.266 485.5,520.5 Z"/></g>
<g><path style="opacity:0.99" fill="#ee3d37" d="M 811.5,523.5 C 829.319,522.68 846.986,523.846 864.5,527C 895.572,535.07 913.739,554.903 919,586.5C 923.955,628.918 911.122,664.751 880.5,694C 852.835,714.442 821.668,724.275 787,723.5C 768.997,723.277 751.164,721.444 733.5,718C 747.782,655.302 762.615,592.469 778,529.5C 780.266,528.044 782.766,527.21 785.5,527C 794.273,525.5 802.94,524.334 811.5,523.5 Z M 810.5,554.5 C 870.52,548.69 893.02,575.023 878,633.5C 867.056,666.774 844.222,685.941 809.5,691C 798.152,691.832 786.819,691.666 775.5,690.5C 786.646,645.917 797.479,601.251 808,556.5C 808.995,555.934 809.828,555.267 810.5,554.5 Z"/></g>
<g><path style="opacity:0.99" fill="#ee3d37" d="M 1525.5,523.5 C 1536.84,523.333 1548.17,523.5 1559.5,524C 1578.3,524.823 1594.14,531.989 1607,545.5C 1616.04,558.461 1619.04,572.795 1616,588.5C 1613.2,605.598 1604.7,619.098 1590.5,629C 1582.34,634.078 1573.68,638.078 1564.5,641C 1577.84,666.337 1588.84,692.67 1597.5,720C 1584.49,720.833 1571.49,720.666 1558.5,719.5C 1554.3,706.72 1549.8,694.053 1545,681.5C 1540.2,669.241 1534.37,657.575 1527.5,646.5C 1518.3,647.154 1509.14,647.821 1500,648.5C 1494.42,672.429 1488.58,696.263 1482.5,720C 1470.5,720.5 1458.5,720.667 1446.5,720.5C 1461.35,656.441 1476.51,592.441 1492,528.5C 1503.16,526.026 1514.32,524.359 1525.5,523.5 Z M 1524.5,554.5 C 1533.84,554.334 1543.17,554.5 1552.5,555C 1573.99,556.815 1582.82,568.315 1579,589.5C 1575.59,600.573 1568.43,608.073 1557.5,612C 1550.74,614.685 1543.74,616.351 1536.5,617C 1526.84,617.5 1517.17,617.666 1507.5,617.5C 1512.17,597.144 1517.01,576.811 1522,556.5C 1522.99,555.934 1523.83,555.267 1524.5,554.5 Z"/></g>
<g><path style="opacity:0.989" fill="#ee3d37" d="M 586.5,525.5 C 598.833,525.5 611.167,525.5 623.5,525.5C 614.495,563.856 605.328,602.189 596,640.5C 592.167,652.795 591.833,665.128 595,677.5C 598.176,685.509 604.01,690.342 612.5,692C 636.813,696.762 653.98,687.928 664,665.5C 665.864,660.909 667.53,656.243 669,651.5C 679.127,609.863 689.127,568.196 699,526.5C 711.086,525.512 723.253,525.178 735.5,525.5C 725.477,569.927 714.977,614.26 704,658.5C 693.343,703.148 665.01,725.482 619,725.5C 602.279,726.035 587.112,721.535 573.5,712C 563.878,702.923 558.378,691.756 557,678.5C 556.196,668.127 556.529,657.793 558,647.5C 567.504,606.819 577.004,566.153 586.5,525.5 Z"/></g>
<g><path style="opacity:0.989" fill="#ee3d37" d="M 975.5,525.5 C 987.851,525.168 1000.18,525.501 1012.5,526.5C 1006.1,552.01 999.766,577.51 993.5,603C 1019.83,603.5 1046.16,603.667 1072.5,603.5C 1078.82,577.567 1084.82,551.567 1090.5,525.5C 1102.83,525.5 1115.17,525.5 1127.5,525.5C 1112.01,590.465 1096.68,655.465 1081.5,720.5C 1069.17,720.5 1056.83,720.5 1044.5,720.5C 1051.48,691.904 1058.15,663.237 1064.5,634.5C 1038.49,634.167 1012.49,634.5 986.5,635.5C 979.354,663.416 972.521,691.416 966,719.5C 953.914,720.488 941.747,720.822 929.5,720.5C 944.991,655.535 960.325,590.535 975.5,525.5 Z"/></g>
<g><path style="opacity:0.988" fill="#ed3d37" d="M 1171.5,525.5 C 1212.17,525.167 1252.84,525.5 1293.5,526.5C 1291.01,536.134 1288.67,545.8 1286.5,555.5C 1257.83,555.5 1229.17,555.5 1200.5,555.5C 1196.83,571.5 1193.17,587.5 1189.5,603.5C 1214.5,603.5 1239.5,603.5 1264.5,603.5C 1262.5,613.5 1260.5,623.5 1258.5,633.5C 1233.16,633.333 1207.83,633.5 1182.5,634C 1177.76,652.456 1173.09,670.956 1168.5,689.5C 1199.16,690.5 1229.83,690.833 1260.5,690.5C 1258.33,700.2 1255.99,709.866 1253.5,719.5C 1210.5,720.667 1167.5,720.833 1124.5,720C 1140.4,655.239 1156.07,590.406 1171.5,525.5 Z"/></g>
<g><path style="opacity:0.987" fill="#ee3d37" d="M 1332.5,525.5 C 1372.83,525.5 1413.17,525.5 1453.5,525.5C 1451.63,535.523 1449.63,545.523 1447.5,555.5C 1418.83,555.333 1390.16,555.5 1361.5,556C 1357.44,571.724 1353.78,587.557 1350.5,603.5C 1375.5,603.5 1400.5,603.5 1425.5,603.5C 1423.64,613.272 1421.31,622.938 1418.5,632.5C 1393.18,633.5 1367.84,633.833 1342.5,633.5C 1338.32,652.534 1333.99,671.534 1329.5,690.5C 1360.17,690.333 1390.84,690.5 1421.5,691C 1418.78,700.721 1416.44,710.554 1414.5,720.5C 1371.49,720.833 1328.49,720.5 1285.5,719.5C 1301.17,654.805 1316.84,590.138 1332.5,525.5 Z"/></g>
</svg>
